<svg xmlns="http://www.w3.org/2000/svg" width="49.396" height="50.267" viewBox="0 0 49.396 50.267">
    <g id="Picture2" transform="translate(-1.058 -0.5)">
        <circle id="Ellipse_289" data-name="Ellipse 289" cx="4.927" cy="4.927" r="4.927" transform="translate(20.83 1)"
                fill="none" stroke="#fff" stroke-miterlimit="10" stroke-width="1"/>
        <path id="Path_936" data-name="Path 936"
              d="M35.749,36.742h3.735l-1.192-15.1A5.661,5.661,0,0,0,32.57,16.4H26.213a5.721,5.721,0,0,0-5.721,5.245L19.3,36.742h3.814"
              transform="translate(-3.635 -3.163)" fill="none" stroke="#fff" stroke-miterlimit="10" stroke-width="1"/>
        <path id="Path_937" data-name="Path 937" d="M36.891,37.2,35.3,57.7H25.289L23.7,37.2"
              transform="translate(-4.539 -7.435)" fill="none" stroke="#fff" stroke-miterlimit="10" stroke-width="1"/>
        <circle id="Ellipse_290" data-name="Ellipse 290" cx="4.529" cy="4.529" r="4.529"
                transform="translate(36.166 2.907)" fill="none" stroke="#fff" stroke-miterlimit="10" stroke-width="1"/>
        <path id="Path_938" data-name="Path 938" d="M55.841,36.453h3.417L58.145,22.547A5.218,5.218,0,0,0,52.9,17.7H47.1"
              transform="translate(-9.345 -3.43)" fill="none" stroke="#fff" stroke-miterlimit="10" stroke-width="1"/>
        <path id="Path_939" data-name="Path 939" d="M55.443,36.9l-1.43,18.833H44.795L44,45.005"
              transform="translate(-8.708 -7.373)" fill="none" stroke="#fff" stroke-miterlimit="10" stroke-width="1"/>
        <circle id="Ellipse_291" data-name="Ellipse 291" cx="4.529" cy="4.529" r="4.529"
                transform="translate(6.288 2.907)" fill="none" stroke="#fff" stroke-miterlimit="10" stroke-width="1"/>
        <path id="Path_940" data-name="Path 940" d="M13.678,17.8H7.957a5.218,5.218,0,0,0-5.245,4.847L1.6,36.474H5.017"
              transform="translate(0 -3.45)" fill="none" stroke="#fff" stroke-miterlimit="10" stroke-width="1"/>
        <path id="Path_941" data-name="Path 941" d="M17.043,45.005l-.795,10.727H7.03L5.6,36.9"
              transform="translate(-0.822 -7.373)" fill="none" stroke="#fff" stroke-miterlimit="10" stroke-width="1"/>
    </g>
</svg>
