<svg xmlns="http://www.w3.org/2000/svg" width="58.62" height="47.179" viewBox="0 0 58.62 47.179">
    <g id="Picture3" transform="translate(-1 -7.121)">
        <path id="Path_947" data-name="Path 947" d="M1,13.2H7.524V43.361H1" transform="translate(0 -0.294)" fill="none"
              stroke="#fff" stroke-miterlimit="10" stroke-width="1"/>
        <path id="Path_948" data-name="Path 948" d="M62.624,13.2H56.1V43.361h6.524" transform="translate(-3.004 -0.294)"
              fill="none" stroke="#fff" stroke-miterlimit="10" stroke-width="1"/>
        <path id="Path_949" data-name="Path 949" d="M7.9,18.512l11.629-6.146a4.655,4.655,0,0,1,2.742-.567l4.349.473"
              transform="translate(-0.376 -0.217)" fill="none" stroke="#fff" stroke-miterlimit="10" stroke-width="1"/>
        <path id="Path_950" data-name="Path 950"
              d="M53.918,41.27H46.543L31.227,22.739l-8.6,4.633s-3.876,2.553-5.767-.851A5.286,5.286,0,0,1,16.1,23.4a4.793,4.793,0,0,1,1.891-2.647l3.12-2.836c3.215-2.931,6.146-6.146,9.266-9.266a3.45,3.45,0,0,1,4.538,0l19,16.546"
              transform="translate(-0.822)" fill="none" stroke="#fff" stroke-miterlimit="10" stroke-width="1"/>
        <path id="Path_951" data-name="Path 951"
              d="M46.1,42.862a3.74,3.74,0,0,1-1.418.945,4.1,4.1,0,0,1-5.295-1.8H39.29a4.239,4.239,0,0,1-1.418,5.673h0a4.185,4.185,0,0,1-5.484-2.08l.095.189a4.239,4.239,0,0,1-1.418,5.673h0a4.185,4.185,0,0,1-5.484-2.08l-.095-.189a4.239,4.239,0,0,1-1.418,5.673h0a4.185,4.185,0,0,1-5.484-2.08h0L7.9,37"
              transform="translate(-0.376 -1.592)" fill="none" stroke="#fff" stroke-miterlimit="10" stroke-width="1"/>
    </g>
</svg>
