<svg xmlns="http://www.w3.org/2000/svg" width="50.664" height="50.246" viewBox="0 0 50.664 50.246">
  <g id="Picture13" transform="translate(-0.297 -0.5)">
    <path id="Path_1085" data-name="Path 1085" d="M9.9,10.7V5.3h5.4" transform="translate(-1.831 -0.885)" fill="none" stroke="#fff" stroke-miterlimit="10" stroke-width="1"/>
    <line id="Line_575" data-name="Line 575" x2="8.261" y2="8.181" transform="translate(8.069 4.336)" fill="none" stroke="#fff" stroke-miterlimit="10" stroke-width="1"/>
    <path id="Path_1086" data-name="Path 1086" d="M53.2,10.7V5.3H47.8" transform="translate(-9.628 -0.885)" fill="none" stroke="#fff" stroke-miterlimit="10" stroke-width="1"/>
    <line id="Line_576" data-name="Line 576" x1="8.261" y2="8.181" transform="translate(35.313 4.336)" fill="none" stroke="#fff" stroke-miterlimit="10" stroke-width="1"/>
    <path id="Path_1087" data-name="Path 1087" d="M9.9,49.9v5.481h5.4" transform="translate(-1.831 -10.06)" fill="none" stroke="#fff" stroke-miterlimit="10" stroke-width="1"/>
    <line id="Line_577" data-name="Line 577" y1="8.261" x2="8.261" transform="translate(8.069 37.06)" fill="none" stroke="#fff" stroke-miterlimit="10" stroke-width="1"/>
    <path id="Path_1088" data-name="Path 1088" d="M53.2,49.9v5.481H47.8" transform="translate(-9.628 -10.06)" fill="none" stroke="#fff" stroke-miterlimit="10" stroke-width="1"/>
    <line id="Line_578" data-name="Line 578" x1="8.261" y1="8.261" transform="translate(35.313 37.06)" fill="none" stroke="#fff" stroke-miterlimit="10" stroke-width="1"/>
    <path id="Path_1089" data-name="Path 1089" d="M4.813,32.825,1,29.013,4.733,25.2" transform="translate(0 -4.978)" fill="none" stroke="#fff" stroke-miterlimit="10" stroke-width="1"/>
    <line id="Line_579" data-name="Line 579" y1="0.079" x2="11.517" transform="translate(1 24.034)" fill="none" stroke="#fff" stroke-miterlimit="10" stroke-width="1"/>
    <path id="Path_1090" data-name="Path 1090" d="M58.1,32.925l3.892-3.813L58.1,25.3" transform="translate(-11.746 -4.999)" fill="none" stroke="#fff" stroke-miterlimit="10" stroke-width="1"/>
    <line id="Line_580" data-name="Line 580" x1="11.517" y1="0.079" transform="translate(38.728 24.034)" fill="none" stroke="#fff" stroke-miterlimit="10" stroke-width="1"/>
    <circle id="Ellipse_329" data-name="Ellipse 329" cx="4.925" cy="4.925" r="4.925" transform="translate(20.698 1)" fill="none" stroke="#fff" stroke-miterlimit="10" stroke-width="1"/>
    <path id="Path_1091" data-name="Path 1091" d="M35.662,36.734H39.4L38.2,21.642A5.658,5.658,0,0,0,32.485,16.4H26.21a5.718,5.718,0,0,0-5.719,5.242L19.3,36.734h3.813" transform="translate(-3.765 -3.168)" fill="none" stroke="#fff" stroke-miterlimit="10" stroke-width="1"/>
    <path id="Path_1092" data-name="Path 1092" d="M36.885,37.2,35.3,57.693H25.289L23.7,37.2" transform="translate(-4.67 -7.447)" fill="none" stroke="#fff" stroke-miterlimit="10" stroke-width="1"/>
  </g>
</svg>
