<svg xmlns="http://www.w3.org/2000/svg" width="150" height="46.756" viewBox="0 0 150 46.756">
    <path id="McKinsey_White" data-name="McKinsey White"
          d="M140.418,46.272l3-6.234-3.854-8.276a3.606,3.606,0,0,0-1.446-1.29h-.482v-.86h6v.86h-.7c-.321,0-1.017.806-1.017,1.236l2.623,6.073,2.57-6.073a1.69,1.69,0,0,0-.964-1.236h-.7v-.86H150v.86h-.535c-.267,0-1.071.86-1.338,1.236l-3.854,8.76-2.837,6.288Zm-33.459.161h-6v-.86h.749a1.437,1.437,0,0,0,.709-.45,1.412,1.412,0,0,0,.468-.732V31.654a1.41,1.41,0,0,0-.468-.732,1.434,1.434,0,0,0-.709-.45h-.749v-.86h3.64l.375,2.311A4.3,4.3,0,0,1,109.1,29.29a3.932,3.932,0,0,1,3.266,1.592,6.971,6.971,0,0,1,1.178,4.212,7.3,7.3,0,0,1-1.305,4.373,4.5,4.5,0,0,1-1.473,1.287,3.949,3.949,0,0,1-1.88.466,4.443,4.443,0,0,1-2.369-.564,4.171,4.171,0,0,1-1.485-1.693v5.428a1.355,1.355,0,0,0,.488.732,1.55,1.55,0,0,0,.689.45h.75v.86h0ZM104.979,33.75v3.01a3.237,3.237,0,0,0,3.266,3.278c1.759,0,2.8-1.012,3.105-3.01a11.944,11.944,0,0,0,0-3.386c-.22-1.878-1.255-2.956-2.837-2.956l-.111,0C106.767,30.685,105.584,31.745,104.979,33.75ZM71.547,39.689a5.688,5.688,0,0,1-1.23-1.9,6.684,6.684,0,0,1-.457-2.482,6.768,6.768,0,0,1,.457-2.5,5.619,5.619,0,0,1,1.23-1.9,5.591,5.591,0,0,1,7.869,0,5.619,5.619,0,0,1,1.23,1.9,7.095,7.095,0,0,1,0,5.01,5.612,5.612,0,0,1-1.23,1.9,5.566,5.566,0,0,1-7.869-.02Zm.669-6.422a15.714,15.714,0,0,0,0,3.869c.3,2,1.45,3.064,3.319,3.064l.128,0a3.024,3.024,0,0,0,3.191-3.011,15.613,15.613,0,0,0,0-3.869,3.1,3.1,0,0,0-3.319-3.064A3.149,3.149,0,0,0,72.216,33.266ZM32.9,39.9a4.926,4.926,0,0,1-1.693-3.728,6.3,6.3,0,0,1,.81-3.144,6.888,6.888,0,0,1,1.974-2.176A5.425,5.425,0,0,1,32.6,27.194a4.593,4.593,0,0,1,.291-1.679,3.28,3.28,0,0,1,.833-1.23,4.414,4.414,0,0,1,3.051-1.014,7.729,7.729,0,0,1,2.2.343,3.988,3.988,0,0,0,1.008.194c.373,0,.642,0,.8-.322h.749v4.138h-.749a3.687,3.687,0,0,0-1.151-2.217,4.181,4.181,0,0,0-2.918-1.33c-1.9,0-3,.92-3,2.526a3.457,3.457,0,0,0,2.462,3.117c1.876,2.017,4.275,4.355,7.334,7.148a6.623,6.623,0,0,0,.91-3.708,2.545,2.545,0,0,0-2.784-2.633v-.86h6.21v.86h-.7a3.65,3.65,0,0,0-1.553,1.881,9.075,9.075,0,0,1-1.5,4.89,40.461,40.461,0,0,0,3.533,2.848h1.071v.86H46.788a5.879,5.879,0,0,1-4.336-1.773,7.735,7.735,0,0,1-5.728,2.1A5.828,5.828,0,0,1,32.9,39.9Zm.073-4.91a4.763,4.763,0,0,0,1.646,3.392,5.357,5.357,0,0,0,3.493,1.5,6.159,6.159,0,0,0,3.8-1.182,89.015,89.015,0,0,1-7.548-7.416A4.767,4.767,0,0,0,32.976,34.986Zm20.4-2.849c0-5,2.944-9.029,7.816-9.029,1.874,0,3.051.753,4.39.753a1.21,1.21,0,0,0,1.071-.484h.642v6.234h-.7v.054c0-1.827-2.035-5.482-5.3-5.482-3,0-4.818,1.666-5.139,5.643a31,31,0,0,0,.054,4.461,5.8,5.8,0,0,0,5.942,5.589,5.573,5.573,0,0,0,5.621-3.6h.91a7.126,7.126,0,0,1-7.066,5C56.585,41.274,53.373,37.136,53.373,32.138Zm62.159,8.209a3.211,3.211,0,0,1-.863-2.244,2.852,2.852,0,0,1,1.245-2.419,6.284,6.284,0,0,1,2.449-.967l2.944-.591v-1.4c0-1.77-.8-2.526-2.677-2.526a2.052,2.052,0,0,0-1.833.772,2.6,2.6,0,0,0,.12,2.453h-.8l-1.5-2.311a5.283,5.283,0,0,1,1.753-1.25,6.956,6.956,0,0,1,2.8-.524,5.018,5.018,0,0,1,3.018.846,3.036,3.036,0,0,1,1.211,2.539v6.18c0,.372.907,1.182,1.231,1.182h1.392c.324,0,1.231-.81,1.231-1.182v-7.2a1.449,1.449,0,0,0-.5-.712,1.539,1.539,0,0,0-.736-.47h-.7v-.86h3.587l.428,2.311.115-.121a11.859,11.859,0,0,1,1.905-1.734,4.2,4.2,0,0,1,2.423-.725,3.148,3.148,0,0,1,2.242.887,3.249,3.249,0,0,1,.917,2.338v6.341c0,.372.907,1.182,1.231,1.182v-.054h.642v.86H133.03v-.86h.642c.324,0,1.231-.81,1.231-1.182V32.675a1.744,1.744,0,0,0-1.82-1.935,4.667,4.667,0,0,0-2.449.9c-.744.512-1.245,1.1-1.245,1.465v5.858c0,.372.907,1.182,1.231,1.182h.642v.86h-9.636l-.268-2.311a9.3,9.3,0,0,1-1.62,1.706,3.518,3.518,0,0,1-2.181.819A2.791,2.791,0,0,1,115.531,40.347Zm3.045-4.77a2.142,2.142,0,0,0-1.874,2.257,1.786,1.786,0,0,0,1.82,1.827,3.839,3.839,0,0,0,2.784-1.989V34.879ZM81.049,41.005v-.86h.642c.321,0,1.178-.806,1.178-1.182V31.654c0-.376-.857-1.182-1.178-1.182h-.642v-.86h3.48l.482,2.2c1.285-1.4,2.141-2.418,4.122-2.418a2.785,2.785,0,0,1,3,2.418c1.392-1.4,2.3-2.365,4.176-2.365a3.013,3.013,0,0,1,3.105,3.225v6.234h.107c0,.376.857,1.182,1.178,1.182h.535v.86H95.557v-.86H96.2c.321,0,1.178-.806,1.178-1.182V32.621a1.642,1.642,0,0,0-1.767-1.881c-1.5,0-3.319,1.451-3.319,2.2v5.965c0,.376.857,1.182,1.178,1.182h.642v.86H88.33v-.86h.642c.321,0,1.178-.806,1.178-1.182V32.621a1.68,1.68,0,0,0-1.82-1.881c-1.5,0-3.319,1.5-3.319,2.311v5.911c0,.376.857,1.182,1.178,1.182h.642v.86Zm8.3-18.218,3-6.234L88.49,8.276a3.6,3.6,0,0,0-1.445-1.29h-.482v-.86h6v.86h-.7c-.321,0-1.017.806-1.017,1.236L93.469,14.3l2.57-6.073a1.691,1.691,0,0,0-.964-1.236h-.7v-.86h4.55v.86h-.535c-.268,0-1.071.86-1.338,1.236L93.2,16.982,90.364,23.27ZM3.265,2.311V15.317c0,.376,1.017,1.343,1.338,1.343H5.46v.86H0v-.86H.857c.321,0,1.338-.967,1.338-1.343V2.2C2.195,1.827,1.178.86.857.86H0V0H5.086l5.246,13.221h.107L15.953,0H20.5V.86h-.856c-.321,0-1.338.967-1.338,1.343V15.37c0,.376,1.017,1.343,1.338,1.343H20.5v.86H13.758v-.86h.857c.321,0,1.338-.967,1.338-1.343V2.58L9.583,17.842Zm76.97,15a4.968,4.968,0,0,1-1.655-1.295,6.486,6.486,0,0,1-1.439-4.192c0-3.346,2.243-5.966,5.106-5.966h.087A4.033,4.033,0,0,1,85.319,7.02a3.875,3.875,0,0,1,.81,1.264,4.776,4.776,0,0,1,.328,1.551l.053.806-7.548.591a4.994,4.994,0,0,0,1.094,3.126A3.819,3.819,0,0,0,83.083,15.8a3.535,3.535,0,0,0,3.533-2.042h.7a6.193,6.193,0,0,1-1.7,2.943,4.647,4.647,0,0,1-3.226,1.088A4.929,4.929,0,0,1,80.235,17.31Zm-1.327-6.83L84.582,10a3.151,3.151,0,0,0-.456-2.551,2.334,2.334,0,0,0-1.846-.673C79.959,6.771,79.016,8.687,78.908,10.48Zm-58.19,1.4c0-3.654,2.409-6.073,5.407-6.073a5.115,5.115,0,0,1,4.015,1.612L28.48,10l-.642.054c.321-1.773,0-3.332-1.927-3.332-2.248,0-3.372,1.827-3.372,4.461,0,2.526,1.606,4.622,4.175,4.622A3.561,3.561,0,0,0,30.3,13.758H31c-.75,2.472-2.248,4.031-5.086,4.031C22.752,17.789,20.717,15.1,20.717,11.877ZM69.54,16.982a.937.937,0,0,0-.857.376h-.535V13.382h.7v.161a4.126,4.126,0,0,0,3.961,3.332c1.392,0,2.195-.484,2.195-1.558,0-1.29-1.124-1.72-2.141-2.15-.8-.322-1.446-.591-2.355-1.021-1.392-.645-2.409-1.558-2.409-3.117,0-2.042,1.231-3.224,3.426-3.224,1.231,0,1.927.591,2.784.591.321,0,.535-.054.642-.323h.642V9.566h-.7A3.636,3.636,0,0,0,71.467,6.61c-1.338,0-1.927.591-1.927,1.5,0,.968.7,1.344,1.82,1.828.857.376,1.5.645,2.463,1.021a3.594,3.594,0,0,1,2.623,3.278,3.325,3.325,0,0,1-3.64,3.44C71.36,17.681,70.5,16.982,69.54,16.982Zm-31.532.592h-6.8v-.86h.857c.316,0,1.338-.959,1.338-1.343V2.2C33.4,1.819,32.383.86,32.066.86H31.21V0h6.8V.86h-.856c-.316,0-1.338.959-1.338,1.344V9.351l6.263-6.987c.069-.084.057-.234-.037-.435-.215-.46-.8-1.07-1.034-1.07H40.15V0h6.317V.86H45.61a8.159,8.159,0,0,0-2.248,1.612L39.133,7.04l6.1,8.115a6.386,6.386,0,0,0,2.088,1.451h1.285c.324,0,1.231-.81,1.231-1.182V8.169a1.448,1.448,0,0,0-.5-.712,1.539,1.539,0,0,0-.736-.47h-.7v-.86h4.069v9.3c0,.372.907,1.182,1.231,1.182H54.6c.324,0,1.231-.81,1.231-1.182V8.169a1.448,1.448,0,0,0-.5-.712,1.539,1.539,0,0,0-.736-.47h-.7v-.86h3.587l.428,2.365.115-.12a11.849,11.849,0,0,1,1.906-1.734,4.2,4.2,0,0,1,2.423-.726,3.148,3.148,0,0,1,2.242.887,3.25,3.25,0,0,1,.917,2.338v6.341c0,.372.907,1.182,1.231,1.182H67.4v.86H61.617v-.86h.642c.324,0,1.231-.81,1.231-1.182V9.244a1.744,1.744,0,0,0-1.82-1.935,4.669,4.669,0,0,0-2.449.9c-.744.512-1.245,1.1-1.245,1.465v5.858c0,.372.907,1.182,1.231,1.182h.642v.86H43.63L37.58,8.814l-1.766,1.935V15.37c0,.384,1.022,1.343,1.338,1.343h.856v.86h0ZM49.2,1.989A1.4,1.4,0,0,1,49.645.92,1.554,1.554,0,0,1,50.7.537,1.468,1.468,0,0,1,51.72.92a1.43,1.43,0,0,1,.422,1.068,1.511,1.511,0,0,1-.422,1.1,1.495,1.495,0,0,1-2.523-1.1Z"
          fill="#fff"/>
</svg>
