<svg xmlns="http://www.w3.org/2000/svg" width="43.699" height="45.375" viewBox="0 0 43.699 45.375">
    <g id="Picture5" transform="translate(0.541 0.5)">
        <rect id="Rectangle_2532" data-name="Rectangle 2532" width="22.903" height="4.652"
              transform="translate(19.754 4.867)" fill="none" stroke="#fff" stroke-miterlimit="10" stroke-width="1"/>
        <path id="Path_1028" data-name="Path 1028" d="M31.2,32.508v4.438H51.813V14.4"
              transform="translate(-10.444 -4.809)" fill="none" stroke="#fff" stroke-miterlimit="10" stroke-width="1"/>
        <line id="Line_567" data-name="Line 567" y2="3.865" transform="translate(20.756 9.591)" fill="none"
              stroke="#fff" stroke-miterlimit="10" stroke-width="1"/>
        <line id="Line_568" data-name="Line 568" x2="16.82" transform="translate(22.76 40.654)" fill="none"
              stroke="#fff" stroke-miterlimit="10" stroke-width="1"/>
        <line id="Line_569" data-name="Line 569" y2="8.446" transform="translate(31.206 32.208)" fill="none"
              stroke="#fff" stroke-miterlimit="10" stroke-width="1"/>
        <path id="Path_1029" data-name="Path 1029"
              d="M5.421,31.316,6.852,49.782h9.018l2-26.053,5.8,6.513,3.149-2.935-8.3-9.09A5.414,5.414,0,0,0,14.582,16.5H8.427a5.153,5.153,0,0,0-5.153,4.724L2.2,34.823H5.636"
              transform="translate(-2.2 -5.406)" fill="none" stroke="#fff" stroke-miterlimit="10" stroke-width="1"/>
        <circle id="Ellipse_320" data-name="Ellipse 320" cx="4.438" cy="4.438" r="4.438" transform="translate(4.652 0)"
                fill="none" stroke="#fff" stroke-miterlimit="10" stroke-width="1"/>
    </g>
</svg>
