<svg xmlns="http://www.w3.org/2000/svg" width="21.957" height="20.977" viewBox="0 0 21.957 20.977">
    <path id="Icon_Color" data-name="Icon Color"
          d="M16.535,19.977a.65.65,0,0,1-.306-.077l-5.761-3.028L4.708,19.9a.649.649,0,0,1-.807-.159.641.641,0,0,1-.142-.53l1.1-6.416L.2,8.253A.655.655,0,0,1,.56,7.136L7,6.2,9.882.365a.655.655,0,0,1,1.174,0L13.936,6.2l6.441.935a.655.655,0,0,1,.363,1.116L16.079,12.8l1.1,6.416a.641.641,0,0,1-.142.53A.656.656,0,0,1,16.535,19.977Zm-6.066-4.5a.658.658,0,0,1,.3.075l4.892,2.572-.934-5.448a.654.654,0,0,1,.187-.579l3.958-3.857-5.469-.795a.653.653,0,0,1-.492-.358L10.468,2.132,8.022,7.088a.653.653,0,0,1-.492.358l-5.469.795L6.019,12.1a.654.654,0,0,1,.187.579l-.934,5.448,4.892-2.572A.658.658,0,0,1,10.469,15.478Z"
          transform="translate(0.51 0.5)" fill="#2251ff" stroke="rgba(0,0,0,0)" stroke-width="1"/>
</svg>
