<svg xmlns="http://www.w3.org/2000/svg" width="62" height="49.689" viewBox="0 0 62 49.689">
  <g id="Picture10" transform="translate(-1 -7.112)">
    <path id="Path_960" data-name="Path 960" d="M1,13.2H7.9V45.1H1" fill="none" stroke="#2251ff" stroke-miterlimit="10" stroke-width="1"/>
    <path id="Path_961" data-name="Path 961" d="M63,13.2H56.1V45.1H63" fill="none" stroke="#2251ff" stroke-miterlimit="10" stroke-width="1"/>
    <path id="Path_962" data-name="Path 962" d="M7.9,18.9l12.3-6.5a4.923,4.923,0,0,1,2.9-.6l4.6.5" fill="none" stroke="#2251ff" stroke-miterlimit="10" stroke-width="1"/>
    <path id="Path_963" data-name="Path 963" d="M56.1,43.2H48.3L32.1,23.6,23,28.5s-4.1,2.7-6.1-.9a5.591,5.591,0,0,1-.8-3.3,5.069,5.069,0,0,1,2-2.8l3.3-3c3.4-3.1,6.5-6.5,9.8-9.8a3.649,3.649,0,0,1,4.8,0L56.1,26.2" fill="none" stroke="#2251ff" stroke-miterlimit="10" stroke-width="1"/>
    <path id="Path_964" data-name="Path 964" d="M48.3,43.2a3.956,3.956,0,0,1-1.5,1,4.341,4.341,0,0,1-5.6-1.9h-.1a4.484,4.484,0,0,1-1.5,6h0a4.426,4.426,0,0,1-5.8-2.2l.1.2a4.484,4.484,0,0,1-1.5,6h0a4.426,4.426,0,0,1-5.8-2.2l-.1-.2a4.484,4.484,0,0,1-1.5,6h0a4.426,4.426,0,0,1-5.8-2.2h0L7.9,37" fill="none" stroke="#2251ff" stroke-miterlimit="10" stroke-width="1"/>
  </g>
</svg>
