<svg xmlns="http://www.w3.org/2000/svg" width="29.921" height="28.815" viewBox="0 0 29.921 28.815">
  <g id="Picture2" transform="translate(-0.5 -1.2)">
    <circle id="Ellipse_333" data-name="Ellipse 333" cx="2.612" cy="2.612" r="2.612" transform="translate(24.696 4.872)" fill="none" stroke="#2251ff" stroke-miterlimit="10" stroke-width="1"/>
    <path id="Path_1136" data-name="Path 1136" d="M56.5,27.411V24.566A1.871,1.871,0,0,0,54.632,22.7H52.766c-1.026,0-1.866.373-1.866,1.4v.187" transform="translate(-26.624 -11.204)" fill="none" stroke="#2251ff" stroke-miterlimit="10" stroke-width="1"/>
    <circle id="Ellipse_334" data-name="Ellipse 334" cx="2.612" cy="2.612" r="2.612" transform="translate(1 4.872)" fill="none" stroke="#2251ff" stroke-miterlimit="10" stroke-width="1"/>
    <path id="Path_1137" data-name="Path 1137" d="M6.7,24.186V24c0-1.026-.84-1.4-1.866-1.4H2.966A1.871,1.871,0,0,0,1.1,24.466v2.845" transform="translate(-0.053 -11.151)" fill="none" stroke="#2251ff" stroke-miterlimit="10" stroke-width="1"/>
    <path id="Path_1138" data-name="Path 1138" d="M8.417,39.054C3.985,37.888,1,35.556,1,32.944,1,29.072,7.484,25.9,15.46,25.9s14.46,3.125,14.46,7.044c0,2.659-2.985,4.944-7.417,6.157" transform="translate(0 -12.912)" fill="none" stroke="#2251ff" stroke-miterlimit="10" stroke-width="1"/>
    <path id="Path_1139" data-name="Path 1139" d="M31.4,19.705l-.047-.56A3.088,3.088,0,0,0,28.317,16.3H24.679a3.02,3.02,0,0,0-3.032,2.845l-.047.42" transform="translate(-10.991 -7.79)" fill="none" stroke="#2251ff" stroke-miterlimit="10" stroke-width="1"/>
    <circle id="Ellipse_335" data-name="Ellipse 335" cx="2.705" cy="2.705" r="2.705" transform="translate(12.755 1.7)" fill="none" stroke="#2251ff" stroke-miterlimit="10" stroke-width="1"/>
    <path id="Path_1140" data-name="Path 1140" d="M31.2,54.244l-.233-3.918A3.389,3.389,0,0,0,27.65,47.2H23.685a3.287,3.287,0,0,0-3.312,3.125L20,54.244" transform="translate(-10.137 -24.276)" fill="none" stroke="#2251ff" stroke-miterlimit="10" stroke-width="1"/>
    <circle id="Ellipse_336" data-name="Ellipse 336" cx="2.939" cy="2.939" r="2.939" transform="translate(12.522 15.647)" fill="none" stroke="#2251ff" stroke-miterlimit="10" stroke-width="1"/>
  </g>
</svg>