<svg xmlns="http://www.w3.org/2000/svg" width="63" height="49.4" viewBox="0 0 63 49.4">
  <g id="Picture8" transform="translate(-0.5 -7.9)">
    <path id="Path_970" data-name="Path 970" d="M1,46.5c0,2.3,3.7,4.1,8.3,4.1s8.3-1.8,8.3-4.1" fill="none" stroke="#2251ff" stroke-miterlimit="10" stroke-width="1"/>
    <path id="Path_971" data-name="Path 971" d="M1,52.7c0,2.3,3.7,4.1,8.3,4.1s8.3-1.8,8.3-4.1" fill="none" stroke="#2251ff" stroke-miterlimit="10" stroke-width="1"/>
    <path id="Path_972" data-name="Path 972" d="M1,40.3c0,2.3,3.7,4.1,8.3,4.1s8.3-1.8,8.3-4.1" fill="none" stroke="#2251ff" stroke-miterlimit="10" stroke-width="1"/>
    <path id="Path_973" data-name="Path 973" d="M1,34.1c0,2.3,3.7,4.1,8.3,4.1s8.3-1.8,8.3-4.1" fill="none" stroke="#2251ff" stroke-miterlimit="10" stroke-width="1"/>
    <path id="Path_974" data-name="Path 974" d="M1,27.9C1,30.2,4.7,32,9.3,32s8.3-1.8,8.3-4.1" fill="none" stroke="#2251ff" stroke-miterlimit="10" stroke-width="1"/>
    <ellipse id="Ellipse_296" data-name="Ellipse 296" cx="8.3" cy="4.1" rx="8.3" ry="4.1" transform="translate(1 17.6)" fill="none" stroke="#2251ff" stroke-miterlimit="10" stroke-width="1"/>
    <line id="Line_548" data-name="Line 548" y1="31" transform="translate(17.6 21.7)" fill="none" stroke="#2251ff" stroke-miterlimit="10" stroke-width="1"/>
    <line id="Line_549" data-name="Line 549" y1="31" transform="translate(1 21.7)" fill="none" stroke="#2251ff" stroke-miterlimit="10" stroke-width="1"/>
    <path id="Path_975" data-name="Path 975" d="M17.6,49.7c0,2.3,3.7,4.1,8.3,4.1s8.3-1.8,8.3-4.1" fill="none" stroke="#2251ff" stroke-miterlimit="10" stroke-width="1"/>
    <path id="Path_976" data-name="Path 976" d="M17.6,43.5c0,2.3,3.7,4.1,8.3,4.1s8.3-1.8,8.3-4.1" fill="none" stroke="#2251ff" stroke-miterlimit="10" stroke-width="1"/>
    <ellipse id="Ellipse_297" data-name="Ellipse 297" cx="8.3" cy="4.1" rx="8.3" ry="4.1" transform="translate(17.6 33.2)" fill="none" stroke="#2251ff" stroke-miterlimit="10" stroke-width="1"/>
    <line id="Line_550" data-name="Line 550" y1="12.5" transform="translate(34.2 37.2)" fill="none" stroke="#2251ff" stroke-miterlimit="10" stroke-width="1"/>
    <path id="Path_977" data-name="Path 977" d="M37.4,38.4H63V8.4H8.2v5.9" fill="none" stroke="#2251ff" stroke-miterlimit="10" stroke-width="1"/>
    <path id="Path_978" data-name="Path 978" d="M35.6,33.1H54.8l3.4-3.4h0V17.8h0l-3.4-4.1H16.5l-1.4,1.6" fill="none" stroke="#2251ff" stroke-miterlimit="10" stroke-width="1"/>
    <circle id="Ellipse_298" data-name="Ellipse 298" cx="4.2" cy="4.2" r="4.2" transform="translate(31.4 19.2)" fill="none" stroke="#2251ff" stroke-miterlimit="10" stroke-width="1"/>
  </g>
</svg>
